HIERARCHY
ROOT Hips
{
	OFFSET	0.00	0.00	0.00
	CHANNELS 6 Xposition Yposition Zposition Zrotation Xrotation Yrotation
	JOINT Spine
	{
		OFFSET	 0.00	0.01	 0.00
		CHANNELS 3 Zrotation Xrotation Yrotation
		JOINT Spine1
		{
			OFFSET	 0.00	 2.45913012437421	 0.00
			CHANNELS 3 Zrotation Xrotation Yrotation
            JOINT Neck
            {
                OFFSET	 0.00	 2.48462964506057	 0.00
                CHANNELS 3 Zrotation Xrotation Yrotation
                JOINT Head
                {
                    OFFSET	 0.00	 0.927524780924562	 0.00
                    CHANNELS 3 Zrotation Xrotation Yrotation
                    End Site 
                    {
                        OFFSET	 0.00	 1.14999962169752	 0.00
                    }
                }
            }
			JOINT LeftShoulder
			{
				OFFSET	 0.00	 2.48462964506057	 0.00
				CHANNELS 3 Zrotation Xrotation Yrotation
				JOINT LeftUpArm
				{
					OFFSET	 0.00	 1.24881979654096	 0.00
					CHANNELS 3 Zrotation Xrotation Yrotation
					JOINT LeftForeArm
					{
						OFFSET	 0.00	2.59758046908119	 0.00
						CHANNELS 3 Zrotation Xrotation Yrotation
						JOINT LeftHand
						{
							OFFSET	 0.00	2.45542024364365	 0.00
							CHANNELS 3 Zrotation Xrotation Yrotation
							JOINT LeftHandThumb 
							{
								OFFSET	 0.00	0.00	 0.00
								CHANNELS 3 Zrotation Xrotation Yrotation
								End Site
								{
									OFFSET	 0.00	0.00	1.00000003353624
								}
							}
							JOINT L_Wrist_End 
							{
								OFFSET	 0.00	0.99999967115358	 0.00
								CHANNELS 3 Zrotation Xrotation Yrotation
								End Site 
								{
									OFFSET	 0.00	 0.00	 0.00
								}
							}
						}
					}
				}
			}
			JOINT RightShoulder
			{
				OFFSET	 0.00	 2.48462964506057	 0.00
				CHANNELS 3 Zrotation Xrotation Yrotation
				JOINT RightUpArm
				{
					OFFSET	 0.00	 1.24881979654096	 0.00
					CHANNELS 3 Zrotation Xrotation Yrotation
					JOINT RightForeArm
					{
						OFFSET	 0.00	2.59758046908119	 0.00
						CHANNELS 3 Zrotation Xrotation Yrotation
						JOINT RightHand
						{
							OFFSET	 0.00	2.45542024364365	 0.00
							CHANNELS 3 Zrotation Xrotation Yrotation
							JOINT RightHandThumb 
							{
								OFFSET	 0.00	0.00	 0.00
								CHANNELS 3 Zrotation Xrotation Yrotation
								End Site
								{
									OFFSET	 0.00	0.00	1.00000003353624
								}
							}
							JOINT R_Wrist_End 
							{
								OFFSET	 0.00	0.99999967115358	 0.00
								CHANNELS 3 Zrotation Xrotation Yrotation
								End Site 
								{
									OFFSET	 0.00	 0.00	 0.00
								}
							}
						}
					}
				}
			}
		}
	}
	JOINT LeftUpLeg
	{
		OFFSET	 1.2719394002717	 0.00	 0.00
		CHANNELS 3 Zrotation Xrotation Yrotation
		JOINT LeftLowLeg
		{
			OFFSET	 0.00	-4.3429100912261	 0.00
			CHANNELS 3 Zrotation Xrotation Yrotation
			JOINT LeftFoot
			{
				OFFSET	 0.00	-4.48767017425826	 0.00
				CHANNELS 3 Zrotation Xrotation Yrotation
				JOINT LeftToeBase
                {
                    OFFSET	 0.00	0.00	 1.51507020887566
                    CHANNELS 3 Zrotation Xrotation Yrotation
                    End Site 
                    {
                        OFFSET	 0.00	0.00	 0.75000010571191
                    }
                }
			}
		}
	}
	JOINT RightUpLeg
	{
		OFFSET	 -1.2719393604653	 0.00	 0.00
		CHANNELS 3 Zrotation Xrotation Yrotation
		JOINT RightLowLeg
		{
			OFFSET	 0.00	-4.3429100912261	 0.00
			CHANNELS 3 Zrotation Xrotation Yrotation
			JOINT RightFoot
			{
				OFFSET	 0.00	-4.48767017425826	 0.00
				CHANNELS 3 Zrotation Xrotation Yrotation
				JOINT RightToeBase
                {
                    OFFSET	 0.00	0.00	 1.51507020887566
                    CHANNELS 3 Zrotation Xrotation Yrotation
                    End Site 
                    {
                        OFFSET	 0.00	0.00	 0.749999965609858
                    }
                }   
			}
		}
	}
}
MOTION 
Frames:	20 
Frame Time: 0.02 
 2.2910499572753906 7.569530029296875 9.81219970703125 -155.296 82.4822 158.687 1.51896 -8.20085 -1.92555 1.08243 2.82599 -2.13434 -3.87537 31.6401 3.39766 15.7406 -56.128 11.0164 -89.63953 -14.9281 -4.17393 -10.0961 3.55553 -26.8341 0.0 21.0577 0.0 28.6141 -9.23023 26.9225 0.0 0.0 0.0 0.0 0.0 0.0 97.24566 -10.0501 1.01687 7.82574 0.651799 34.0279 0.0 21.1233 0.0 -14.6602 -3.53742 -27.5386 0.0 0.0 0.0 0.0 0.0 0.0 6.12302 -5.30905 1.44888 0.0 7.25419 0.0 7.37454 7.08263 0.711116 0.0 -35.2798 0.0 0.294732 -3.22206 6.06234 0.0 6.51101 0.0 9.40438 9.391069 -7.31985 0.0 -26.8962 0.0 
  2.291540069580078 7.5685302734375 9.812139892578125 -155.36 82.4684 158.744 1.53471 -8.21861 -1.93152 1.06355 2.82277 -2.14405 -3.88856 31.6617 3.43552 15.7194 -56.0683 11.0378 -89.65445 -14.9195 -4.14991 -10.0991 3.53487 -26.7809 0.0 21.0754 0.0 28.5717 -9.22429 26.8965 0.0 0.0 0.0 0.0 0.0 0.0 97.25536 -10.0637 0.992022 7.84982 0.68829 34.0937 0.0 21.1391 0.0 -14.6782 -3.48633 -27.4283 0.0 0.0 0.0 0.0 0.0 0.0 6.11999 -5.31043 1.46467 0.0 7.24181 0.0 7.38137 7.07946 0.699417 0.0 -35.278297 0.0 0.287159 -3.22409 6.0217 0.0 6.49395 0.0 9.39218 9.398251 -7.28162 0.0 -26.8818 0.0 
  2.291909942626953 7.567459716796875 9.812100219726563 -155.403 82.4588 158.786 1.54051 -8.22992 -1.9485 1.0598 2.81433 -2.16254 -3.90852 31.743 3.49016 15.7366 -56.0331 11.103 -89.68463 -14.9166 -4.13718 -10.0798 3.52578 -26.7063 0.0 21.0236 0.0 28.5779 -9.25876 26.8555 0.0 0.0 0.0 0.0 0.0 0.0 97.25333 -10.0504 0.990043 7.87784 0.704757 34.1316 0.0 21.1324 0.0 -14.7003 -3.44989 -27.3992 0.0 0.0 0.0 0.0 0.0 0.0 6.116 -5.30861 1.46575 0.0 7.23068 0.0 7.38172 7.07854 0.701338 0.0 -35.2779 0.0 0.283285 -3.2145 6.0114 0.0 6.46742 0.0 9.38409 9.40369 -7.2809 0.0 -26.880901 0.0 
  2.292270050048828 7.566400146484375 9.811859741210938 -155.436 82.4564 158.811 1.58201 -8.22168 -1.93267 0.980697 2.77916 -2.1561 -3.8516 31.7943 3.44045 15.7427 -55.9857 11.1349 -89.64019 -14.878 -4.13768 -10.1373 3.51935 -26.7971 0.0 21.0031 0.0 28.5587 -9.2934 26.8956 0.0 0.0 0.0 0.0 0.0 0.0 97.29445 -10.0808 0.954004 7.8954 0.719277 34.1203 0.0 21.1539 0.0 -14.6766 -3.497 -27.309 0.0 0.0 0.0 0.0 0.0 0.0 6.11307 -5.29808 1.48602 0.0 7.22026 0.0 7.37646 7.07188 0.688329 0.0 -35.3018 0.0 0.27832 -3.20689 5.99765 0.0 6.45756 0.0 9.37003 9.39375 -7.26604 0.0 -26.857399 0.0 
  2.2924099731445313 7.565809936523437 9.811630249023438 -155.454 82.465 158.803 1.57355 -8.20408 -1.93303 0.997066 2.76129 -2.15425 -3.91873 31.8172 3.51291 15.7536 -55.9722 11.0829 -89.63388 -14.8645 -4.13773 -10.2338 3.49408 -26.9533 0.0 21.0195 0.0 28.5896 -9.29049 26.8599 0.0 0.0 0.0 0.0 0.0 0.0 97.31354 -10.0648 0.937535 7.87908 0.70936 34.1108 0.0 21.1509 0.0 -14.7005 -3.46253 -27.31 0.0 0.0 0.0 0.0 0.0 0.0 6.11201 -5.28201 1.54466 0.0 7.224 0.0 7.3818 7.05729 0.652789 0.0 -35.2854 0.0 0.273831 -3.21404 6.02537 0.0 6.48634 0.0 9.38649 9.37446 -7.25465 0.0 -26.8582 0.0 
  2.292480010986328 7.565159912109375 9.811519775390625 -155.43 82.4787 158.756 1.56723 -8.19313 -1.93321 1.01203 2.78058 -2.15315 -3.92639 31.8146 3.51563 15.7202 -55.9517 11.0636 -89.648834 -14.8558 -4.12332 -10.2959 3.47272 -26.9831 0.0 21.019 0.0 28.6305 -9.20191 26.8393 0.0 0.0 0.0 0.0 0.0 0.0 97.33599 -10.0683 0.941974 7.88188 0.714835 34.1297 0.0 21.1638 0.0 -14.7407 -3.4885 -27.3769 0.0 0.0 0.0 0.0 0.0 0.0 6.11081 -5.26169 1.56103 0.0 7.23189 0.0 7.39664 7.04839 0.6653 0.0 -35.2924 0.0 0.278471 -3.21287 6.11505 0.0 6.51343 0.0 9.39872 9.35582 -7.31912 0.0 -26.864601 0.0 
  2.2926800537109373 7.564710083007813 9.811510009765625 -155.368 82.4988 158.677 1.57732 -8.16738 -1.9314 1.00119 2.79456 -2.15392 -3.92446 31.8257 3.51181 15.7113 -55.9582 11.0766 -89.65985 -14.8475 -4.1139 -10.3309 3.45213 -26.9635 0.0 21.025 0.0 28.5219 -9.26491 26.7569 0.0 0.0 0.0 0.0 0.0 0.0 97.35187 -10.0582 0.924813 7.90354 0.690912 34.1405 0.0 21.1782 0.0 -14.6878 -3.50865 -27.2831 0.0 0.0 0.0 0.0 0.0 0.0 6.11081 -5.23734 1.54357 0.0 7.24243 0.0 7.38026 7.03861 0.688858 0.0 -35.2798 0.0 0.277603 -3.20099 6.11038 0.0 6.53371 0.0 9.41066 9.35244 -7.2901 0.0 -26.8745 0.0 
  2.2928700256347656 7.564180297851562 9.811439819335938 -155.382 82.5065 158.686 1.57615 -8.1646 -1.93232 0.999481 2.83338 -2.1551 -3.92583 31.8042 3.50824 15.7067 -55.9661 11.0648 -89.68198 -14.8327 -4.11274 -10.3418 3.43651 -26.8313 0.0 20.9512 0.0 28.5336 -9.23398 26.7588 0.0 0.0 0.0 0.0 0.0 0.0 97.36738 -10.0706 0.946937 7.91151 0.67995 34.0997 0.0 21.1651 0.0 -14.6664 -3.51072 -27.1061 0.0 0.0 0.0 0.0 0.0 0.0 6.10465 -5.22694 1.52622 0.0 7.24546 0.0 7.37022 7.03864 0.707825 0.0 -35.2791 0.0 0.27196 -3.1904 6.11515 0.0 6.53231 0.0 9.40814 9.34225 -7.287 0.0 -26.855999 0.0 
  2.293040008544922 7.563419799804688 9.811380004882812 -155.399 82.51 158.704 1.57582 -8.16494 -1.93942 0.991746 2.87847 -2.16287 -3.87432 31.7968 3.46433 15.6673 -55.9543 11.1409 -89.70246 -14.8282 -4.12659 -10.3331 3.41558 -26.73 0.0 20.889 0.0 28.5015 -9.225 26.8143 0.0 0.0 0.0 0.0 0.0 0.0 97.38799 -10.0916 0.971252 7.91364 0.695178 34.0813 0.0 21.1222 0.0 -14.6656 -3.52387 -27.0985 0.0 0.0 0.0 0.0 0.0 0.0 6.09729 -5.21527 1.47588 0.0 7.237 0.0 7.3733 7.04478 0.75669 0.0 -35.2676 0.0 0.268057 -3.17808 6.12455 0.0 6.52178 0.0 9.39839 9.33967 -7.29843 0.0 -26.8762 0.0 
  2.293059997558594 7.562830200195313 9.811079711914063 -155.438 82.4981 158.738 1.61863 -8.13632 -1.90521 0.904426 2.82911 -2.13797 -3.79425 31.8015 3.37864 15.695 -55.9437 11.1606 -89.64724 -14.7751 -4.07186 -10.3602 3.42796 -26.7614 0.0 20.8235 0.0 28.4851 -9.22732 26.7857 0.0 0.0 0.0 0.0 0.0 0.0 97.42608 -10.1484 0.958213 7.93432 0.665629 34.0975 0.0 21.0993 0.0 -14.6529 -3.53773 -27.1734 0.0 0.0 0.0 0.0 0.0 0.0 6.09774 -5.22515 1.48997 0.0 7.24101 0.0 7.36916 7.03226 0.751637 0.0 -35.2704 0.0 0.267058 -3.19149 6.10323 0.0 6.52828 0.0 9.41141 9.3333 -7.27153 0.0 -26.8759 0.0 
  2.293070068359375 7.562369995117187 9.811099853515625 -155.414 82.4965 158.714 1.61871 -8.13672 -1.90538 0.906944 2.84059 -2.13827 -3.80113 31.8055 3.38968 15.7108 -55.9485 11.1623 -89.64976 -14.7762 -4.08501 -10.3708 3.43402 -26.7655 0.0 20.8063 0.0 28.4694 -9.25326 26.7388 0.0 0.0 0.0 0.0 0.0 0.0 97.42799 -10.1529 0.963047 7.93747 0.653481 34.1024 0.0 21.0801 0.0 -14.6187 -3.49424 -27.1636 0.0 0.0 0.0 0.0 0.0 0.0 6.1019 -5.22083 1.48784 0.0 7.23913 0.0 7.3623 7.02538 0.749414 0.0 -35.2555 0.0 0.269566 -3.19033 6.09276 0.0 6.53174 0.0 9.41867 9.33469 -7.25649 0.0 -26.868301 0.0 
  2.2932499694824218 7.56114013671875 9.811160278320312 -155.421 82.4928 158.708 1.62145 -8.14151 -1.90004 0.896693 2.85404 -2.13368 -3.78065 31.8465 3.36269 15.7283 -55.9604 11.1747 -89.655525 -14.7625 -4.102 -10.3958 3.40676 -26.8068 0.0 20.8564 0.0 28.3788 -9.32351 26.9229 0.0 0.0 0.0 0.0 0.0 0.0 97.43893 -10.1481 0.988721 7.94654 0.613448 34.0978 0.0 21.059 0.0 -14.5949 -3.51546 -27.1892 0.0 0.0 0.0 0.0 0.0 0.0 6.10401 -5.20287 1.52966 0.0 7.21687 0.0 7.36934 7.02648 0.722797 0.0 -35.2672 0.0 0.269722 -3.18372 6.10794 0.0 6.52075 0.0 9.41455 9.34118 -7.26097 0.0 -26.8755 0.0 
  2.2934199523925782 7.5598602294921875 9.811389770507812 -155.519 82.4687 158.796 1.58242 -8.20684 -1.93577 0.958377 2.92906 -2.16146 -3.83891 31.8744 3.42379 15.7108 -55.9592 11.1569 -89.731895 -14.8143 -4.15307 -10.3702 3.40155 -26.7662 0.0 20.8787 0.0 28.3321 -9.28174 26.9839 0.0 0.0 0.0 0.0 0.0 0.0 97.4212 -10.1046 1.02961 7.96399 0.62999 34.1614 0.0 21.0508 0.0 -14.5768 -3.50488 -27.1908 0.0 0.0 0.0 0.0 0.0 0.0 6.10245 -5.20595 1.55843 0.0 7.18887 0.0 7.38185 7.03908 0.705491 0.0 -35.2677 0.0 0.269209 -3.18918 6.13497 0.0 6.49205 0.0 9.39356 9.34857 -7.29774 0.0 -26.8656 0.0 
  2.2934500122070314 7.55905029296875 9.811339721679687 -155.595 82.4473 158.863 1.5757 -8.22763 -1.94484 0.963275 2.9196 -2.16894 -3.86722 31.9312 3.45226 15.7098 -55.9347 11.1303 -89.75749 -14.8298 -4.16041 -10.3353 3.40193 -26.6551 0.0 20.8897 0.0 28.3426 -9.28304 26.9149 0.0 0.0 0.0 0.0 0.0 0.0 97.42117 -10.1004 1.04779 7.97151 0.640728 34.152 0.0 21.0525 0.0 -14.5835 -3.55318 -27.2601 0.0 0.0 0.0 0.0 0.0 0.0 6.10311 -5.21239 1.58903 0.0 7.17068 0.0 7.3801 7.03574 0.684792 0.0 -35.267097 0.0 0.264766 -3.20689 6.1163 0.0 6.48649 0.0 9.39412 9.351891 -7.26388 0.0 -26.8731 0.0 
  2.2933599853515627 7.558060302734375 9.811220092773437 -155.629 82.4426 158.895 1.56873 -8.23779 -1.95404 0.963733 2.91458 -2.17661 -3.86717 32.005 3.44179 15.6926 -55.9196 11.1233 -89.77289 -14.8215 -4.14173 -10.313 3.38872 -26.6104 0.0 20.9067 0.0 28.3869 -9.28943 26.7663 0.0 0.0 0.0 0.0 0.0 0.0 97.44484 -10.1024 1.03397 7.94056 0.658191 34.1139 0.0 21.0615 0.0 -14.5694 -3.5622 -27.2415 0.0 0.0 0.0 0.0 0.0 0.0 6.10212 -5.21068 1.60374 0.0 7.16894 0.0 7.37528 7.03113 0.674182 0.0 -35.283302 0.0 0.263717 -3.20002 6.12788 0.0 6.47396 0.0 9.39665 9.34781 -7.27534 0.0 -26.8693 0.0 
  2.2933099365234373 7.557260131835937 9.811190185546875 -155.599 82.4448 158.856 1.56188 -8.2416 -1.95179 0.982537 2.91973 -2.17266 -3.88088 32.0494 3.44113 15.6701 -55.9153 11.0979 -89.79416 -14.8068 -4.1313 -10.3107 3.35813 -26.5044 0.0 20.939 0.0 28.4562 -9.24431 26.6122 0.0 0.0 0.0 0.0 0.0 0.0 97.45963 -10.1002 1.03844 7.90352 0.646487 34.0623 0.0 21.0725 0.0 -14.5527 -3.52578 -27.2743 0.0 0.0 0.0 0.0 0.0 0.0 6.10473 -5.20211 1.57356 0.0 7.17339 0.0 7.37498 7.02868 0.709829 0.0 -35.280098 0.0 0.265132 -3.18702 6.12085 0.0 6.4609 0.0 9.39671 9.35581 -7.25514 0.0 -26.8707 0.0 
  2.2931700134277344 7.556209716796875 9.811019897460938 -155.558 82.4517 158.799 1.54825 -8.25053 -1.94983 1.01616 2.94977 -2.16764 -3.92828 32.0597 3.48082 15.6496 -55.8993 11.0384 -89.79866 -14.8213 -4.1467 -10.4034 3.42138 -26.8082 0.0 20.9402 0.0 28.4627 -9.1417 26.7798 0.0 0.0 0.0 0.0 0.0 0.0 97.46013 -10.0979 1.04083 7.88008 0.640874 34.0033 0.0 21.1165 0.0 -14.6576 -3.55913 -27.2696 0.0 0.0 0.0 0.0 0.0 0.0 6.10896 -5.18726 1.56122 0.0 7.18465 0.0 7.36118 7.0106 0.732513 0.0 -35.2582 0.0 0.269626 -3.17423 6.12206 0.0 6.4603 0.0 9.38228 9.35353 -7.246 0.0 -26.864601 0.0 
  2.2928500366210938 7.555499877929687 9.81083984375 -155.588 82.4398 158.815 1.53978 -8.26974 -1.94108 1.0284 2.95494 -2.15673 -3.88526 32.1008 3.42342 15.584 -55.8358 11.0277 -89.80937 -14.7915 -4.12103 -10.4161 3.42084 -26.8353 0.0 20.9753 0.0 28.3845 -9.20609 26.829 0.0 0.0 0.0 0.0 0.0 0.0 97.46546 -10.0856 1.02766 7.86601 0.611856 33.9982 0.0 21.1413 0.0 -14.6366 -3.50337 -27.1517 0.0 0.0 0.0 0.0 0.0 0.0 6.11405 -5.19644 1.59334 0.0 7.19326 0.0 7.35944 6.9984903 0.71967 0.0 -35.2611 0.0 0.275364 -3.19672 6.1485 0.0 6.48573 0.0 9.39098 9.33687 -7.25499 0.0 -26.865799 0.0 
  2.292649993896484 7.554199829101562 9.810689697265625 -155.562 82.4471 158.764 1.5443 -8.28486 -1.93642 1.01403 2.98429 -2.15348 -3.90761 32.1247 3.48424 15.6533 -55.8036 11.0482 -89.83646 -14.7772 -4.09993 -10.356 3.41892 -26.5787 0.0 20.915 0.0 28.3617 -9.25336 26.7389 0.0 0.0 0.0 0.0 0.0 0.0 97.4782 -10.0808 1.00651 7.86908 0.645648 34.067 0.0 21.1407 0.0 -14.6489 -3.48127 -27.1382 0.0 0.0 0.0 0.0 0.0 0.0 6.11578 -5.17344 1.58631 0.0 7.19444 0.0 7.36242 6.98804 0.757665 0.0 -35.2676 0.0 0.279571 -3.19624 6.14066 0.0 6.50845 0.0 9.36352 9.334209 -7.23075 0.0 -26.876999 0.0 
  2.292550048828125 7.553419799804687 9.810659790039063 -155.517 82.4564 158.715 1.55026 -8.28444 -1.93803 1.00125 2.99752 -2.15676 -3.88595 32.1483 3.46896 15.6667 -55.7982 11.0781 -89.848976 -14.7708 -4.08582 -10.3346 3.43766 -26.4979 0.0 20.8326 0.0 28.4164 -9.19232 26.6572 0.0 0.0 0.0 0.0 0.0 0.0 97.48836 -10.0992 1.00246 7.86473 0.694012 34.0767 0.0 21.1211 0.0 -14.641 -3.4893 -27.1577 0.0 0.0 0.0 0.0 0.0 0.0 6.11757 -5.15956 1.58459 0.0 7.20101 0.0 7.36477 6.98079 0.768692 0.0 -35.265 0.0 0.282885 -3.18281 6.15003 0.0 6.51073 0.0 9.36205 9.33167 -7.2344 0.0 -26.879799 0.0 
